<mxfile host="app.diagrams.net" agent="Mozilla/5.0 (Windows NT 10.0; Win64; x64) AppleWebKit/537.36 (KHTML, like Gecko) Chrome/131.0.0.0 Safari/537.36 Edg/131.0.0.0" version="26.0.7">
  <diagram name="Page-1" id="HgUeUBmKbzFHjr80UXvc">
    <mxGraphModel dx="1112" dy="469" grid="1" gridSize="10" guides="1" tooltips="1" connect="1" arrows="1" fold="1" page="1" pageScale="1" pageWidth="850" pageHeight="1100" math="0" shadow="0">
      <root>
        <mxCell id="0" />
        <mxCell id="1" parent="0" />
        <mxCell id="VTuBjtsOPPpUjTxbMF20-19" style="edgeStyle=orthogonalEdgeStyle;rounded=0;orthogonalLoop=1;jettySize=auto;html=1;" edge="1" parent="1" source="VTuBjtsOPPpUjTxbMF20-1">
          <mxGeometry relative="1" as="geometry">
            <mxPoint x="310" y="351" as="targetPoint" />
          </mxGeometry>
        </mxCell>
        <mxCell id="VTuBjtsOPPpUjTxbMF20-1" value="" style="sketch=0;outlineConnect=0;fontColor=#232F3E;gradientColor=none;fillColor=#E7157B;strokeColor=none;dashed=0;verticalLabelPosition=bottom;verticalAlign=top;align=center;html=1;fontSize=12;fontStyle=0;aspect=fixed;pointerEvents=1;shape=mxgraph.aws4.endpoint;" vertex="1" parent="1">
          <mxGeometry x="180" y="312" width="78" height="78" as="geometry" />
        </mxCell>
        <mxCell id="VTuBjtsOPPpUjTxbMF20-21" style="edgeStyle=orthogonalEdgeStyle;rounded=0;orthogonalLoop=1;jettySize=auto;html=1;" edge="1" parent="1" source="VTuBjtsOPPpUjTxbMF20-2">
          <mxGeometry relative="1" as="geometry">
            <mxPoint x="270" y="359" as="targetPoint" />
          </mxGeometry>
        </mxCell>
        <mxCell id="VTuBjtsOPPpUjTxbMF20-22" style="edgeStyle=orthogonalEdgeStyle;rounded=0;orthogonalLoop=1;jettySize=auto;html=1;" edge="1" parent="1" source="VTuBjtsOPPpUjTxbMF20-2">
          <mxGeometry relative="1" as="geometry">
            <mxPoint x="460" y="330" as="targetPoint" />
          </mxGeometry>
        </mxCell>
        <mxCell id="VTuBjtsOPPpUjTxbMF20-23" style="edgeStyle=orthogonalEdgeStyle;rounded=0;orthogonalLoop=1;jettySize=auto;html=1;" edge="1" parent="1" source="VTuBjtsOPPpUjTxbMF20-2">
          <mxGeometry relative="1" as="geometry">
            <mxPoint x="460" y="390" as="targetPoint" />
          </mxGeometry>
        </mxCell>
        <mxCell id="VTuBjtsOPPpUjTxbMF20-2" value="" style="sketch=0;outlineConnect=0;fontColor=#232F3E;gradientColor=none;fillColor=#8C4FFF;strokeColor=none;dashed=0;verticalLabelPosition=bottom;verticalAlign=top;align=center;html=1;fontSize=12;fontStyle=0;aspect=fixed;pointerEvents=1;shape=mxgraph.aws4.application_load_balancer;" vertex="1" parent="1">
          <mxGeometry x="320" y="320" width="78" height="78" as="geometry" />
        </mxCell>
        <mxCell id="VTuBjtsOPPpUjTxbMF20-3" value="" style="sketch=0;points=[[0,0,0],[0.25,0,0],[0.5,0,0],[0.75,0,0],[1,0,0],[0,1,0],[0.25,1,0],[0.5,1,0],[0.75,1,0],[1,1,0],[0,0.25,0],[0,0.5,0],[0,0.75,0],[1,0.25,0],[1,0.5,0],[1,0.75,0]];outlineConnect=0;fontColor=#232F3E;fillColor=#8C4FFF;strokeColor=#ffffff;dashed=0;verticalLabelPosition=bottom;verticalAlign=top;align=center;html=1;fontSize=12;fontStyle=0;aspect=fixed;shape=mxgraph.aws4.resourceIcon;resIcon=mxgraph.aws4.api_gateway;" vertex="1" parent="1">
          <mxGeometry x="180" y="180" width="78" height="78" as="geometry" />
        </mxCell>
        <mxCell id="VTuBjtsOPPpUjTxbMF20-4" value="" style="sketch=0;points=[[0,0,0],[0.25,0,0],[0.5,0,0],[0.75,0,0],[1,0,0],[0,1,0],[0.25,1,0],[0.5,1,0],[0.75,1,0],[1,1,0],[0,0.25,0],[0,0.5,0],[0,0.75,0],[1,0.25,0],[1,0.5,0],[1,0.75,0]];outlineConnect=0;fontColor=#232F3E;fillColor=#ED7100;strokeColor=#ffffff;dashed=0;verticalLabelPosition=bottom;verticalAlign=top;align=center;html=1;fontSize=12;fontStyle=0;aspect=fixed;shape=mxgraph.aws4.resourceIcon;resIcon=mxgraph.aws4.elastic_load_balancing;" vertex="1" parent="1">
          <mxGeometry x="330" y="180" width="78" height="78" as="geometry" />
        </mxCell>
        <mxCell id="VTuBjtsOPPpUjTxbMF20-7" value="" style="sketch=0;outlineConnect=0;fontColor=#232F3E;gradientColor=none;fillColor=#ED7100;strokeColor=none;dashed=0;verticalLabelPosition=bottom;verticalAlign=top;align=center;html=1;fontSize=12;fontStyle=0;aspect=fixed;pointerEvents=1;shape=mxgraph.aws4.container_1;" vertex="1" parent="1">
          <mxGeometry x="470" y="370" width="48" height="31" as="geometry" />
        </mxCell>
        <mxCell id="VTuBjtsOPPpUjTxbMF20-8" value="" style="sketch=0;points=[[0,0,0],[0.25,0,0],[0.5,0,0],[0.75,0,0],[1,0,0],[0,1,0],[0.25,1,0],[0.5,1,0],[0.75,1,0],[1,1,0],[0,0.25,0],[0,0.5,0],[0,0.75,0],[1,0.25,0],[1,0.5,0],[1,0.75,0]];outlineConnect=0;fontColor=#232F3E;fillColor=#ED7100;strokeColor=#ffffff;dashed=0;verticalLabelPosition=bottom;verticalAlign=top;align=center;html=1;fontSize=12;fontStyle=0;aspect=fixed;shape=mxgraph.aws4.resourceIcon;resIcon=mxgraph.aws4.ecs;" vertex="1" parent="1">
          <mxGeometry x="455" y="180" width="78" height="78" as="geometry" />
        </mxCell>
        <mxCell id="VTuBjtsOPPpUjTxbMF20-17" style="edgeStyle=orthogonalEdgeStyle;rounded=0;orthogonalLoop=1;jettySize=auto;html=1;exitX=0.885;exitY=0.4;exitDx=0;exitDy=0;exitPerimeter=0;" edge="1" parent="1" source="VTuBjtsOPPpUjTxbMF20-10">
          <mxGeometry relative="1" as="geometry">
            <mxPoint x="170" y="344" as="targetPoint" />
          </mxGeometry>
        </mxCell>
        <mxCell id="VTuBjtsOPPpUjTxbMF20-10" value="" style="points=[[0.13,0.02,0],[0.5,0,0],[0.87,0.02,0],[0.885,0.4,0],[0.985,0.985,0],[0.5,1,0],[0.015,0.985,0],[0.115,0.4,0]];verticalLabelPosition=bottom;sketch=0;html=1;verticalAlign=top;aspect=fixed;align=center;pointerEvents=1;shape=mxgraph.cisco19.laptop;fillColor=#005073;strokeColor=none;" vertex="1" parent="1">
          <mxGeometry x="20" y="316" width="100" height="70" as="geometry" />
        </mxCell>
        <mxCell id="VTuBjtsOPPpUjTxbMF20-12" value="" style="sketch=0;outlineConnect=0;fontColor=#232F3E;gradientColor=none;fillColor=#ED7100;strokeColor=none;dashed=0;verticalLabelPosition=bottom;verticalAlign=top;align=center;html=1;fontSize=12;fontStyle=0;aspect=fixed;pointerEvents=1;shape=mxgraph.aws4.container_1;" vertex="1" parent="1">
          <mxGeometry x="470" y="318" width="48" height="31" as="geometry" />
        </mxCell>
        <mxCell id="VTuBjtsOPPpUjTxbMF20-26" style="edgeStyle=orthogonalEdgeStyle;rounded=0;orthogonalLoop=1;jettySize=auto;html=1;exitX=0.75;exitY=0;exitDx=0;exitDy=0;" edge="1" parent="1" source="VTuBjtsOPPpUjTxbMF20-15">
          <mxGeometry relative="1" as="geometry">
            <mxPoint x="530" y="326" as="targetPoint" />
          </mxGeometry>
        </mxCell>
        <mxCell id="VTuBjtsOPPpUjTxbMF20-27" style="edgeStyle=orthogonalEdgeStyle;rounded=0;orthogonalLoop=1;jettySize=auto;html=1;exitX=0.25;exitY=0;exitDx=0;exitDy=0;" edge="1" parent="1" source="VTuBjtsOPPpUjTxbMF20-15">
          <mxGeometry relative="1" as="geometry">
            <mxPoint x="530" y="392" as="targetPoint" />
          </mxGeometry>
        </mxCell>
        <mxCell id="VTuBjtsOPPpUjTxbMF20-28" style="edgeStyle=orthogonalEdgeStyle;rounded=0;orthogonalLoop=1;jettySize=auto;html=1;exitX=0.75;exitY=1;exitDx=0;exitDy=0;" edge="1" parent="1" source="VTuBjtsOPPpUjTxbMF20-15">
          <mxGeometry relative="1" as="geometry">
            <mxPoint x="680" y="326" as="targetPoint" />
          </mxGeometry>
        </mxCell>
        <mxCell id="VTuBjtsOPPpUjTxbMF20-15" value="" style="rounded=0;whiteSpace=wrap;html=1;rotation=-90;" vertex="1" parent="1">
          <mxGeometry x="550" y="338.5" width="132" height="41" as="geometry" />
        </mxCell>
        <mxCell id="VTuBjtsOPPpUjTxbMF20-16" value="" style="whiteSpace=wrap;html=1;aspect=fixed;" vertex="1" parent="1">
          <mxGeometry x="682" y="309" width="100" height="100" as="geometry" />
        </mxCell>
        <mxCell id="VTuBjtsOPPpUjTxbMF20-18" style="edgeStyle=orthogonalEdgeStyle;rounded=0;orthogonalLoop=1;jettySize=auto;html=1;entryX=0.86;entryY=0.5;entryDx=0;entryDy=0;entryPerimeter=0;" edge="1" parent="1" source="VTuBjtsOPPpUjTxbMF20-1" target="VTuBjtsOPPpUjTxbMF20-10">
          <mxGeometry relative="1" as="geometry" />
        </mxCell>
        <mxCell id="VTuBjtsOPPpUjTxbMF20-24" style="edgeStyle=orthogonalEdgeStyle;rounded=0;orthogonalLoop=1;jettySize=auto;html=1;entryX=0.697;entryY=0.037;entryDx=0;entryDy=0;entryPerimeter=0;" edge="1" parent="1" source="VTuBjtsOPPpUjTxbMF20-12" target="VTuBjtsOPPpUjTxbMF20-15">
          <mxGeometry relative="1" as="geometry" />
        </mxCell>
        <mxCell id="VTuBjtsOPPpUjTxbMF20-25" style="edgeStyle=orthogonalEdgeStyle;rounded=0;orthogonalLoop=1;jettySize=auto;html=1;entryX=0.303;entryY=0.037;entryDx=0;entryDy=0;entryPerimeter=0;" edge="1" parent="1" source="VTuBjtsOPPpUjTxbMF20-7" target="VTuBjtsOPPpUjTxbMF20-15">
          <mxGeometry relative="1" as="geometry" />
        </mxCell>
        <mxCell id="VTuBjtsOPPpUjTxbMF20-29" style="edgeStyle=orthogonalEdgeStyle;rounded=0;orthogonalLoop=1;jettySize=auto;html=1;exitX=0;exitY=0.75;exitDx=0;exitDy=0;entryX=0.311;entryY=0.988;entryDx=0;entryDy=0;entryPerimeter=0;" edge="1" parent="1" source="VTuBjtsOPPpUjTxbMF20-16" target="VTuBjtsOPPpUjTxbMF20-15">
          <mxGeometry relative="1" as="geometry" />
        </mxCell>
        <mxCell id="VTuBjtsOPPpUjTxbMF20-36" value="Application Load Balancer" style="text;strokeColor=none;align=center;fillColor=none;html=1;verticalAlign=middle;whiteSpace=wrap;rounded=0;" vertex="1" parent="1">
          <mxGeometry x="311" y="401" width="89" height="30" as="geometry" />
        </mxCell>
        <mxCell id="VTuBjtsOPPpUjTxbMF20-37" value="User" style="text;strokeColor=none;align=center;fillColor=none;html=1;verticalAlign=middle;whiteSpace=wrap;rounded=0;" vertex="1" parent="1">
          <mxGeometry x="40" y="386" width="60" height="30" as="geometry" />
        </mxCell>
        <mxCell id="VTuBjtsOPPpUjTxbMF20-38" value="Elastic Container Service" style="text;strokeColor=none;align=center;fillColor=none;html=1;verticalAlign=middle;whiteSpace=wrap;rounded=0;" vertex="1" parent="1">
          <mxGeometry x="420" y="260" width="136" height="30" as="geometry" />
        </mxCell>
        <mxCell id="VTuBjtsOPPpUjTxbMF20-39" value="Sports API" style="text;strokeColor=none;align=center;fillColor=none;html=1;verticalAlign=middle;whiteSpace=wrap;rounded=0;" vertex="1" parent="1">
          <mxGeometry x="189" y="390" width="60" height="30" as="geometry" />
        </mxCell>
        <mxCell id="VTuBjtsOPPpUjTxbMF20-40" value="Sports API Container" style="text;strokeColor=none;align=center;fillColor=none;html=1;verticalAlign=middle;whiteSpace=wrap;rounded=0;" vertex="1" parent="1">
          <mxGeometry x="464" y="398" width="60" height="50" as="geometry" />
        </mxCell>
        <mxCell id="VTuBjtsOPPpUjTxbMF20-41" value="Elastic Load Balancer" style="text;strokeColor=none;align=center;fillColor=none;html=1;verticalAlign=middle;whiteSpace=wrap;rounded=0;" vertex="1" parent="1">
          <mxGeometry x="338" y="260" width="70" height="30" as="geometry" />
        </mxCell>
        <mxCell id="VTuBjtsOPPpUjTxbMF20-42" value="API Gateway" style="text;strokeColor=none;align=center;fillColor=none;html=1;verticalAlign=middle;whiteSpace=wrap;rounded=0;" vertex="1" parent="1">
          <mxGeometry x="180" y="250" width="79" height="30" as="geometry" />
        </mxCell>
        <mxCell id="VTuBjtsOPPpUjTxbMF20-43" value="Backend Server" style="text;strokeColor=none;align=center;fillColor=none;html=1;verticalAlign=middle;whiteSpace=wrap;rounded=0;" vertex="1" parent="1">
          <mxGeometry x="690" y="409" width="90" height="30" as="geometry" />
        </mxCell>
        <mxCell id="VTuBjtsOPPpUjTxbMF20-44" value="Serpapi Api" style="text;strokeColor=none;align=center;fillColor=none;html=1;verticalAlign=middle;whiteSpace=wrap;rounded=0;" vertex="1" parent="1">
          <mxGeometry x="586" y="431" width="60" height="30" as="geometry" />
        </mxCell>
      </root>
    </mxGraphModel>
  </diagram>
</mxfile>
